<svg viewBox="0 0 211.1 90" xmlns="http://www.w3.org/2000/svg"><circle cx="42" cy="42" fill="#9929a7" r="22"/><circle cx="42" cy="42" fill="none" r="23.5" stroke="#9929a7"/><path d="m56.1 56.1 8.5 8.5c1.2 1.2 1.2 3.1 0 4.2-1.2 1.2-3.1 1.2-4.2 0l-8.5-8.5c-1.2-1.2-1.2-3.1 0-4.2 1.2-1.2 3.1-1.2 4.2 0z" fill="#9929a7"/><text fill="#222" font-family="Inter18pt-SemiBold, 'Inter 18pt'" font-size="17" font-weight="600" transform="translate(76 51.3)"><tspan x="0" y="0">Vind Minibiebs</tspan></text><text/><path d="m53.6 32.2v-1.3h-.2c0-.1-1.5-.8-3.7-1-1.9-.2-4.8-.1-7.6 1.6-2.8-1.7-5.7-1.8-7.6-1.6-2.1.3-3.6.9-3.7 1h-.2v1.4c-.8.3-1.3.5-1.3.5h-.2v20.6l.4-.2s1.6-.8 3.9-1c1.4-.2 2.7-.1 4 0 1.6.3 3.1.9 4.4 1.7h.2c0 .1.2 0 .2 0 1.4-.9 2.8-1.4 4.4-1.7 1.3-.2 2.6-.3 4 0 2.3.3 4 1 4 1l.4.2v-20.5h-.2s-.5-.3-1.3-.6zm-3.9-1.7c1.6.2 2.9.6 3.3.8v18.6c-.6-.1-1.8-.3-3.4-.4-1.9 0-4.6.2-7.1 1.5v-19.1c1.1-.7 2.4-1.2 3.7-1.4 1.1-.2 2.3-.2 3.5 0zm-18.4.9c.4-.2 1.7-.6 3.3-.8 1.2-.1 2.4-.1 3.5 0 1.3.2 2.6.7 3.7 1.4v19.1c-2.4-1.3-4.9-1.6-6.7-1.6s-.3 0-.4 0c-1.5 0-2.7.3-3.3.4v-18.6zm23.2 21c-.7-.3-2-.7-3.7-.9-1.4-.2-2.8-.1-4.2 0-1.6.3-3.1.9-4.5 1.7-1.4-.8-2.9-1.4-4.5-1.7-1.3-.2-2.7-.3-4.2 0-1.7.2-3 .6-3.7.9v-19.2c.2 0 .5-.2.9-.3v17.8s.4-.1.4-.1 1.5-.4 3.6-.5c1.9 0 4.7.2 7.3 1.8h.2.2c2.5-1.5 5.3-1.7 7.3-1.7 2.1 0 3.6.4 3.6.4h.4v-17.7c.4.1.7.2.9.3z" fill="#fff"/></svg>