<svg xmlns="http://www.w3.org/2000/svg" viewBox="0 0 72 72" aria-label="Vind Minibiebs - icoon">
  <defs>
    <style>
      .accent{fill:#9929a7}
      .paper{fill:#ffffff}
      .ring{fill:none;stroke:#ffffff;stroke-width:3}
      .handle{fill:#9929a7}
    </style>
  </defs>

  <!-- Loep -->
  <circle cx="32" cy="32" r="22" class="accent"/>
  <circle cx="32" cy="32" r="22" class="ring"/>
  <rect x="44" y="44" width="18" height="6" rx="3" transform="rotate(45 44 44)" class="handle"/>

  <!-- Boek (wit) -->
  <path class="paper" d="M22 23c0-1.1.9-2 2-2h8c1.7 0 3 .8 3 2.4V47c0-1.6-1.3-2.4-3-2.4h-8c-1.1 0-2 .9-2 2V23z"/>
  <path class="paper" d="M42 21h8c1.1 0 2 .9 2 2v23.6c0-1.6-.9-2.4-2-2.4h-8c-1.7 0-3 .8-3 2.4V23.4c0-1.6 1.3-2.4 3-2.4z"/>
  <!-- Middenvouw -->
  <rect x="34.5" y="22.5" width="1.5" height="21" fill="#ffffff" opacity=".9"/>
</svg>